<svg xmlns="http://www.w3.org/2000/svg" fill="none" viewBox="0 0 32 32" id="Fountain-Pen--Streamline-Emojitwo-Black"><desc>Fountain Pen Streamline Emoji: https://streamlinehq.com</desc><g><path fill="#000000" d="M29.835 2.1645a3.98 3.98 0 0 0 -5.626 0l-2.215 2.2145s-2.366 0.867 -6.679 5.1805c-4.313 4.313 -5.1795 6.6795 -5.1795 6.6795l-4.5795 4.5785 0.8555 0.856 -4.3475 2.6375s0.3295 3.0145 -1.0635 5.941l4.7285 -4.73a0.793 0.793 0 0 1 0.2305 -0.6065 0.797 0.797 0 0 1 1.126 -0.0005c0.31 0.312 0.31 0.8145 0 1.1265a0.81 0.81 0 0 1 -0.608 0.2305L1.749 31c2.9255 -1.393 5.9395 -1.0635 5.9395 -1.0635l2.6375 -4.349 0.8565 0.857 4.5775 -4.5795s2.367 -0.866 6.68 -5.18c4.3135 -4.3115 5.1785 -6.6795 5.1785 -6.6795l2.2165 -2.216a3.978 3.978 0 0 0 0 -5.625ZM14.591 22.196l-4.7875 -4.7875 0.751 -0.75 4.787 4.7875 -0.7505 0.75ZM27.2 9.586l-4.787 -4.7885 0.7495 -0.749 4.7875 4.7875 -0.75 0.75Z" stroke-width="0.5"></path></g></svg>
